# xmcd
#
# Track frame offsets: 
#        150
#        12100
#        27484
#        43428
#        57706
#        72672
#        97528
#        119738
#        133821
#        153198
#        163392
#        173741
#        184854
#
# Disc length: 2726 seconds
#
# Revision: 0
# Processed by: cddbd v1.5.2PL0 Copyright (c) Steve Scherf et al.
# Submitted via: ExactAudioCopyFreeDBPlugin 1.0
#
DISCID=be0aa40d
DTITLE=The Headcutters - Shake That Thing
DYEAR=2013
DGENRE=Blues
TTITLE0=She Don't Want Me
TTITLE1=I Keep My Eyes On You
TTITLE2=Hoodoo Man
TTITLE3=Misery, Misery
TTITLE4=Valley Flood
TTITLE5=Nine Below Zero
TTITLE6=I Don't Know
TTITLE7=Pretty Girl
TTITLE8=Man Like Me
TTITLE9=Shake That Thing
TTITLE10=My Boogie Is Alright
TTITLE11=Omar's Nap
TTITLE12=Leaving In The Morning
EXTD=
EXTT0=
EXTT1=
EXTT2=
EXTT3=
EXTT4=
EXTT5=
EXTT6=
EXTT7=
EXTT8=
EXTT9=
EXTT10=
EXTT11=
EXTT12=
PLAYORDER=
